<mxfile host="app.diagrams.net" modified="2024-04-30T14:32:12.056Z" agent="Mozilla/5.0 (Macintosh; Intel Mac OS X 10_15_7) AppleWebKit/605.1.15 (KHTML, like Gecko) Version/17.4.1 Safari/605.1.15" etag="SSH0GgNSDqZprTvk3XLt" version="24.3.0" type="device">
  <diagram name="Page-1" id="s0ebGFrj-XR6TxXkH2C8">
    <mxGraphModel dx="1235" dy="1377" grid="1" gridSize="10" guides="1" tooltips="1" connect="1" arrows="1" fold="1" page="1" pageScale="1" pageWidth="700" pageHeight="750" math="0" shadow="0">
      <root>
        <mxCell id="0" />
        <mxCell id="1" parent="0" />
        <mxCell id="o0SU16Npg5g32bGM0q8D-1" value="" style="rounded=0;whiteSpace=wrap;html=1;dashed=1;fillColor=none;strokeColor=#2F546B;fontColor=#1D3557;strokeWidth=1;" parent="1" vertex="1">
          <mxGeometry x="20" y="110" width="770" height="60" as="geometry" />
        </mxCell>
        <mxCell id="o0SU16Npg5g32bGM0q8D-2" value="" style="rounded=0;whiteSpace=wrap;html=1;fillColor=#A8DADC;strokeColor=#457B9D;fontColor=#1D3557;" parent="1" vertex="1">
          <mxGeometry x="254.5" y="300" width="525.5" height="500" as="geometry" />
        </mxCell>
        <mxCell id="o0SU16Npg5g32bGM0q8D-3" value="" style="rounded=0;whiteSpace=wrap;html=1;dashed=1;fillColor=none;strokeColor=#2F546B;fontColor=#1D3557;strokeWidth=1;" parent="1" vertex="1">
          <mxGeometry x="20" y="540" width="770" height="250" as="geometry" />
        </mxCell>
        <mxCell id="o0SU16Npg5g32bGM0q8D-4" value="" style="rounded=0;whiteSpace=wrap;html=1;dashed=1;fillColor=none;strokeColor=#2F546B;fontColor=#1D3557;strokeWidth=1;" parent="1" vertex="1">
          <mxGeometry x="20" y="285" width="770" height="245" as="geometry" />
        </mxCell>
        <mxCell id="o0SU16Npg5g32bGM0q8D-5" value="" style="rounded=0;whiteSpace=wrap;html=1;dashed=1;fillColor=none;strokeColor=#2F546B;fontColor=#1D3557;strokeWidth=1;" parent="1" vertex="1">
          <mxGeometry x="20" y="180" width="770" height="90" as="geometry" />
        </mxCell>
        <mxCell id="o0SU16Npg5g32bGM0q8D-6" value="" style="rounded=0;whiteSpace=wrap;html=1;dashed=1;fillColor=none;strokeColor=#2F546B;fontColor=#1D3557;strokeWidth=1;" parent="1" vertex="1">
          <mxGeometry x="20" y="10" width="770" height="90" as="geometry" />
        </mxCell>
        <mxCell id="o0SU16Npg5g32bGM0q8D-7" style="edgeStyle=orthogonalEdgeStyle;rounded=0;orthogonalLoop=1;jettySize=auto;html=1;exitX=0.25;exitY=1;exitDx=0;exitDy=0;entryX=0.25;entryY=0;entryDx=0;entryDy=0;endArrow=block;endFill=1;labelBackgroundColor=#F1FAEE;strokeColor=#457B9D;fontColor=#1D3557;strokeWidth=2;" parent="1" source="o0SU16Npg5g32bGM0q8D-9" target="o0SU16Npg5g32bGM0q8D-25" edge="1">
          <mxGeometry relative="1" as="geometry">
            <Array as="points">
              <mxPoint x="340" y="520" />
              <mxPoint x="340" y="555" />
              <mxPoint x="348" y="555" />
            </Array>
          </mxGeometry>
        </mxCell>
        <mxCell id="o0SU16Npg5g32bGM0q8D-9" value="Presidio Analyzer Engine" style="rounded=0;whiteSpace=wrap;html=1;fillColor=#d5e8d4;strokeColor=#82b366;" parent="1" vertex="1">
          <mxGeometry x="290" y="480" width="190" height="40" as="geometry" />
        </mxCell>
        <mxCell id="o0SU16Npg5g32bGM0q8D-10" style="edgeStyle=orthogonalEdgeStyle;rounded=0;orthogonalLoop=1;jettySize=auto;html=1;exitX=0.75;exitY=0;exitDx=0;exitDy=0;endArrow=block;endFill=1;labelBackgroundColor=#F1FAEE;strokeColor=#457B9D;fontColor=#1D3557;strokeWidth=2;" parent="1" source="o0SU16Npg5g32bGM0q8D-25" target="o0SU16Npg5g32bGM0q8D-9" edge="1">
          <mxGeometry relative="1" as="geometry">
            <Array as="points">
              <mxPoint x="509" y="555" />
              <mxPoint x="460" y="555" />
            </Array>
          </mxGeometry>
        </mxCell>
        <mxCell id="o0SU16Npg5g32bGM0q8D-11" style="edgeStyle=orthogonalEdgeStyle;rounded=0;orthogonalLoop=1;jettySize=auto;html=1;exitX=0.5;exitY=1;exitDx=0;exitDy=0;endArrow=block;endFill=1;entryX=0.142;entryY=-0.033;entryDx=0;entryDy=0;labelBackgroundColor=#F1FAEE;strokeColor=#457B9D;fontColor=#1D3557;strokeWidth=2;entryPerimeter=0;" parent="1" source="o0SU16Npg5g32bGM0q8D-12" target="o0SU16Npg5g32bGM0q8D-37" edge="1">
          <mxGeometry relative="1" as="geometry" />
        </mxCell>
        <mxCell id="o0SU16Npg5g32bGM0q8D-12" value="CSV Reader" style="rounded=0;whiteSpace=wrap;html=1;fillColor=#d5e8d4;strokeColor=#82b366;" parent="1" vertex="1">
          <mxGeometry x="270" y="200" width="100" height="50" as="geometry" />
        </mxCell>
        <mxCell id="o0SU16Npg5g32bGM0q8D-13" style="edgeStyle=orthogonalEdgeStyle;rounded=0;orthogonalLoop=1;jettySize=auto;html=1;exitX=0.5;exitY=1;exitDx=0;exitDy=0;endArrow=block;endFill=1;labelBackgroundColor=#F1FAEE;strokeColor=#457B9D;fontColor=#1D3557;strokeWidth=2;entryX=0.66;entryY=0;entryDx=0;entryDy=0;entryPerimeter=0;" parent="1" source="o0SU16Npg5g32bGM0q8D-14" target="o0SU16Npg5g32bGM0q8D-37" edge="1">
          <mxGeometry relative="1" as="geometry" />
        </mxCell>
        <mxCell id="o0SU16Npg5g32bGM0q8D-14" value="CLI" style="rounded=0;whiteSpace=wrap;html=1;fillColor=#d5e8d4;strokeColor=#82b366;" parent="1" vertex="1">
          <mxGeometry x="507.25" y="200" width="100" height="50" as="geometry" />
        </mxCell>
        <mxCell id="o0SU16Npg5g32bGM0q8D-15" style="edgeStyle=orthogonalEdgeStyle;rounded=0;orthogonalLoop=1;jettySize=auto;html=1;exitX=0.5;exitY=1;exitDx=0;exitDy=0;entryX=0.849;entryY=-0.017;entryDx=0;entryDy=0;entryPerimeter=0;endArrow=block;endFill=1;labelBackgroundColor=#F1FAEE;strokeColor=#457B9D;fontColor=#1D3557;strokeWidth=2;" parent="1" source="o0SU16Npg5g32bGM0q8D-16" target="o0SU16Npg5g32bGM0q8D-37" edge="1">
          <mxGeometry relative="1" as="geometry" />
        </mxCell>
        <mxCell id="o0SU16Npg5g32bGM0q8D-16" value="Rest API" style="rounded=0;whiteSpace=wrap;html=1;fillColor=#d5e8d4;strokeColor=#82b366;" parent="1" vertex="1">
          <mxGeometry x="620" y="200" width="95" height="50" as="geometry" />
        </mxCell>
        <mxCell id="o0SU16Npg5g32bGM0q8D-17" style="edgeStyle=orthogonalEdgeStyle;rounded=0;orthogonalLoop=1;jettySize=auto;html=1;endArrow=block;endFill=1;entryX=0.25;entryY=0;entryDx=0;entryDy=0;exitX=0.25;exitY=1;exitDx=0;exitDy=0;labelBackgroundColor=#F1FAEE;strokeColor=#457B9D;fontColor=#1D3557;strokeWidth=2;" parent="1" source="o0SU16Npg5g32bGM0q8D-19" target="o0SU16Npg5g32bGM0q8D-9" edge="1">
          <mxGeometry relative="1" as="geometry">
            <mxPoint x="170" y="400" as="sourcePoint" />
          </mxGeometry>
        </mxCell>
        <mxCell id="o0SU16Npg5g32bGM0q8D-18" style="edgeStyle=orthogonalEdgeStyle;rounded=0;orthogonalLoop=1;jettySize=auto;html=1;exitX=0.75;exitY=0;exitDx=0;exitDy=0;entryX=0.75;entryY=1;entryDx=0;entryDy=0;endArrow=block;endFill=1;labelBackgroundColor=#F1FAEE;strokeColor=#457B9D;fontColor=#1D3557;strokeWidth=2;" parent="1" source="o0SU16Npg5g32bGM0q8D-19" target="o0SU16Npg5g32bGM0q8D-37" edge="1">
          <mxGeometry relative="1" as="geometry" />
        </mxCell>
        <mxCell id="o0SU16Npg5g32bGM0q8D-19" value="Text anonymizer&amp;nbsp;" style="rounded=0;whiteSpace=wrap;html=1;fillColor=#d5e8d4;strokeColor=#82b366;" parent="1" vertex="1">
          <mxGeometry x="270" y="400" width="350" height="20" as="geometry" />
        </mxCell>
        <mxCell id="o0SU16Npg5g32bGM0q8D-20" value="Text &amp;amp; settings" style="text;html=1;strokeColor=none;fillColor=none;align=center;verticalAlign=middle;whiteSpace=wrap;rounded=0;fontColor=#1D3557;" parent="1" vertex="1">
          <mxGeometry x="365" y="440" width="60" height="30" as="geometry" />
        </mxCell>
        <mxCell id="o0SU16Npg5g32bGM0q8D-22" value="Text fragments" style="text;html=1;strokeColor=none;fillColor=none;align=center;verticalAlign=middle;whiteSpace=wrap;rounded=0;fontColor=#1D3557;" parent="1" vertex="1">
          <mxGeometry x="350" y="550" width="90" height="30" as="geometry" />
        </mxCell>
        <mxCell id="o0SU16Npg5g32bGM0q8D-23" value="Detected&lt;br&gt;entities" style="text;html=1;strokeColor=none;fillColor=none;align=center;verticalAlign=middle;whiteSpace=wrap;rounded=0;fontColor=#1D3557;" parent="1" vertex="1">
          <mxGeometry x="527.13" y="550" width="60.25" height="30" as="geometry" />
        </mxCell>
        <mxCell id="o0SU16Npg5g32bGM0q8D-24" value="" style="group;fillColor=#d5e8d4;strokeColor=#82B366;container=0;" parent="1" vertex="1" connectable="0">
          <mxGeometry x="267.25" y="590" width="322.75" height="190" as="geometry" />
        </mxCell>
        <mxCell id="o0SU16Npg5g32bGM0q8D-37" value="API Layer&lt;br&gt;" style="rounded=0;whiteSpace=wrap;html=1;fillColor=#d5e8d4;strokeColor=#82b366;" parent="1" vertex="1">
          <mxGeometry x="270" y="320" width="350" height="20" as="geometry" />
        </mxCell>
        <mxCell id="o0SU16Npg5g32bGM0q8D-38" value="Anonymization request" style="text;html=1;strokeColor=none;fillColor=none;align=center;verticalAlign=middle;whiteSpace=wrap;rounded=0;fontColor=#1D3557;" parent="1" vertex="1">
          <mxGeometry x="290" y="358.34" width="50" height="30" as="geometry" />
        </mxCell>
        <mxCell id="o0SU16Npg5g32bGM0q8D-39" value="Anonymized&lt;br&gt;response" style="text;html=1;strokeColor=none;fillColor=none;align=center;verticalAlign=middle;whiteSpace=wrap;rounded=0;fontColor=#1D3557;" parent="1" vertex="1">
          <mxGeometry x="550" y="360" width="50" height="30" as="geometry" />
        </mxCell>
        <mxCell id="o0SU16Npg5g32bGM0q8D-40" value="&lt;br&gt;CSV" style="shape=note;whiteSpace=wrap;html=1;backgroundOutline=1;darkOpacity=0.05;size=22;fillColor=#A8DADC;strokeColor=#457B9D;fontColor=#1D3557;" parent="1" vertex="1">
          <mxGeometry x="296.63" y="20" width="46.75" height="60" as="geometry" />
        </mxCell>
        <mxCell id="o0SU16Npg5g32bGM0q8D-42" value="STDIN" style="text;html=1;strokeColor=none;fillColor=none;align=center;verticalAlign=middle;whiteSpace=wrap;rounded=0;fontColor=#1D3557;fontStyle=1" parent="1" vertex="1">
          <mxGeometry x="492.25" y="130" width="60" height="30" as="geometry" />
        </mxCell>
        <mxCell id="o0SU16Npg5g32bGM0q8D-43" value="" style="endArrow=classic;html=1;rounded=0;entryX=0.5;entryY=0;entryDx=0;entryDy=0;labelBackgroundColor=#F1FAEE;strokeColor=#457B9D;fontColor=#1D3557;strokeWidth=2;" parent="1" source="o0SU16Npg5g32bGM0q8D-40" target="o0SU16Npg5g32bGM0q8D-12" edge="1">
          <mxGeometry width="50" height="50" relative="1" as="geometry">
            <mxPoint x="450" y="90" as="sourcePoint" />
            <mxPoint x="449.6190476190477" y="170" as="targetPoint" />
          </mxGeometry>
        </mxCell>
        <mxCell id="o0SU16Npg5g32bGM0q8D-44" value="Filesystem" style="text;html=1;strokeColor=none;fillColor=none;align=center;verticalAlign=middle;whiteSpace=wrap;rounded=0;fontColor=#1D3557;fontStyle=1" parent="1" vertex="1">
          <mxGeometry x="250" y="130" width="60" height="30" as="geometry" />
        </mxCell>
        <mxCell id="o0SU16Npg5g32bGM0q8D-45" style="edgeStyle=orthogonalEdgeStyle;rounded=0;orthogonalLoop=1;jettySize=auto;html=1;endArrow=block;endFill=1;labelBackgroundColor=#F1FAEE;strokeColor=#457B9D;fontColor=#1D3557;strokeWidth=2;" parent="1" source="o0SU16Npg5g32bGM0q8D-53" target="o0SU16Npg5g32bGM0q8D-16" edge="1">
          <mxGeometry relative="1" as="geometry">
            <mxPoint x="722.75" y="215" as="sourcePoint" />
          </mxGeometry>
        </mxCell>
        <mxCell id="o0SU16Npg5g32bGM0q8D-46" value="HTTP" style="text;html=1;strokeColor=none;fillColor=none;align=center;verticalAlign=middle;whiteSpace=wrap;rounded=0;fontColor=#1D3557;fontStyle=1" parent="1" vertex="1">
          <mxGeometry x="607.25" y="130" width="60" height="30" as="geometry" />
        </mxCell>
        <mxCell id="o0SU16Npg5g32bGM0q8D-47" value="Logic" style="text;html=1;strokeColor=none;fillColor=none;align=center;verticalAlign=middle;whiteSpace=wrap;rounded=0;fontSize=14;fontColor=#1D3557;fontStyle=1" parent="1" vertex="1">
          <mxGeometry x="25" y="290" width="40" height="30" as="geometry" />
        </mxCell>
        <mxCell id="o0SU16Npg5g32bGM0q8D-48" value="Modules" style="text;html=1;strokeColor=none;fillColor=none;align=center;verticalAlign=middle;whiteSpace=wrap;rounded=0;fontSize=14;fontColor=#1D3557;fontStyle=1" parent="1" vertex="1">
          <mxGeometry x="25" y="540" width="60" height="30" as="geometry" />
        </mxCell>
        <mxCell id="o0SU16Npg5g32bGM0q8D-49" value="Interfaces" style="text;html=1;strokeColor=none;fillColor=none;align=center;verticalAlign=middle;whiteSpace=wrap;rounded=0;fontSize=15;fontColor=#1D3557;fontStyle=1" parent="1" vertex="1">
          <mxGeometry x="25" y="190" width="70" height="30" as="geometry" />
        </mxCell>
        <mxCell id="o0SU16Npg5g32bGM0q8D-50" value="Protocols" style="text;html=1;strokeColor=none;fillColor=none;align=center;verticalAlign=middle;whiteSpace=wrap;rounded=0;fontSize=15;fontColor=#1D3557;fontStyle=1" parent="1" vertex="1">
          <mxGeometry x="25" y="110" width="70" height="30" as="geometry" />
        </mxCell>
        <mxCell id="o0SU16Npg5g32bGM0q8D-51" value="Inputs" style="text;html=1;strokeColor=none;fillColor=none;align=center;verticalAlign=middle;whiteSpace=wrap;rounded=0;fontSize=15;fontColor=#1D3557;fontStyle=1" parent="1" vertex="1">
          <mxGeometry x="25" y="10" width="50" height="30" as="geometry" />
        </mxCell>
        <mxCell id="o0SU16Npg5g32bGM0q8D-52" value="&lt;br&gt;Plain&lt;br&gt;Text" style="shape=note;whiteSpace=wrap;html=1;backgroundOutline=1;darkOpacity=0.05;size=22;fillColor=#A8DADC;strokeColor=#457B9D;fontColor=#1D3557;" parent="1" vertex="1">
          <mxGeometry x="533.88" y="20" width="46.75" height="60" as="geometry" />
        </mxCell>
        <mxCell id="o0SU16Npg5g32bGM0q8D-53" value="&lt;br&gt;JSON" style="shape=note;whiteSpace=wrap;html=1;backgroundOutline=1;darkOpacity=0.05;size=22;fillColor=#A8DADC;strokeColor=#457B9D;fontColor=#1D3557;" parent="1" vertex="1">
          <mxGeometry x="644.12" y="20" width="46.75" height="60" as="geometry" />
        </mxCell>
        <mxCell id="o0SU16Npg5g32bGM0q8D-54" style="edgeStyle=orthogonalEdgeStyle;rounded=0;orthogonalLoop=1;jettySize=auto;html=1;exitX=0.25;exitY=1;exitDx=0;exitDy=0;entryX=0.25;entryY=0;entryDx=0;entryDy=0;endArrow=block;endFill=1;labelBackgroundColor=#F1FAEE;strokeColor=#457B9D;fontColor=#1D3557;strokeWidth=2;" parent="1" source="o0SU16Npg5g32bGM0q8D-37" target="o0SU16Npg5g32bGM0q8D-19" edge="1">
          <mxGeometry relative="1" as="geometry" />
        </mxCell>
        <mxCell id="o0SU16Npg5g32bGM0q8D-55" value="Settings" style="rounded=0;whiteSpace=wrap;html=1;fillColor=#d5e8d4;strokeColor=#82b366;" parent="1" vertex="1">
          <mxGeometry x="396.75" y="358.34" width="95.5" height="31.66" as="geometry" />
        </mxCell>
        <mxCell id="o0SU16Npg5g32bGM0q8D-56" value="" style="endArrow=none;html=1;rounded=1;sketch=0;fontColor=#1D3557;strokeColor=#457B9D;strokeWidth=2;fillColor=#A8DADC;curved=0;" parent="1" source="o0SU16Npg5g32bGM0q8D-19" target="o0SU16Npg5g32bGM0q8D-55" edge="1">
          <mxGeometry width="50" height="50" relative="1" as="geometry">
            <mxPoint x="460" y="410" as="sourcePoint" />
            <mxPoint x="480" y="450" as="targetPoint" />
          </mxGeometry>
        </mxCell>
        <mxCell id="o0SU16Npg5g32bGM0q8D-83" value="Web app" style="rounded=0;whiteSpace=wrap;html=1;fillColor=#d5e8d4;strokeColor=#82b366;" parent="1" vertex="1">
          <mxGeometry x="392.25" y="200" width="100" height="50" as="geometry" />
        </mxCell>
        <mxCell id="o0SU16Npg5g32bGM0q8D-90" value="HTTP" style="text;html=1;strokeColor=none;fillColor=none;align=center;verticalAlign=middle;whiteSpace=wrap;rounded=0;fontColor=#1D3557;fontStyle=1" parent="1" vertex="1">
          <mxGeometry x="412.25" y="130" width="60" height="30" as="geometry" />
        </mxCell>
        <mxCell id="o0SU16Npg5g32bGM0q8D-92" value="" style="endArrow=classic;html=1;rounded=0;labelBackgroundColor=#F1FAEE;strokeColor=#457B9D;fontColor=#1D3557;strokeWidth=2;" parent="1" source="o0SU16Npg5g32bGM0q8D-52" target="o0SU16Npg5g32bGM0q8D-14" edge="1">
          <mxGeometry width="50" height="50" relative="1" as="geometry">
            <mxPoint x="330" y="90" as="sourcePoint" />
            <mxPoint x="330" y="210" as="targetPoint" />
          </mxGeometry>
        </mxCell>
        <mxCell id="o0SU16Npg5g32bGM0q8D-93" value="" style="endArrow=classic;html=1;rounded=0;labelBackgroundColor=#F1FAEE;strokeColor=#457B9D;fontColor=#1D3557;strokeWidth=2;entryX=0.75;entryY=0;entryDx=0;entryDy=0;" parent="1" source="o0SU16Npg5g32bGM0q8D-52" target="o0SU16Npg5g32bGM0q8D-83" edge="1">
          <mxGeometry width="50" height="50" relative="1" as="geometry">
            <mxPoint x="472" y="90" as="sourcePoint" />
            <mxPoint x="442" y="200" as="targetPoint" />
            <Array as="points">
              <mxPoint x="500" y="50" />
              <mxPoint x="500" y="120" />
              <mxPoint x="467" y="120" />
            </Array>
          </mxGeometry>
        </mxCell>
        <mxCell id="o0SU16Npg5g32bGM0q8D-94" value="" style="endArrow=classic;html=1;rounded=0;labelBackgroundColor=#F1FAEE;strokeColor=#457B9D;fontColor=#1D3557;strokeWidth=2;entryX=0.25;entryY=0;entryDx=0;entryDy=0;" parent="1" source="o0SU16Npg5g32bGM0q8D-40" target="o0SU16Npg5g32bGM0q8D-83" edge="1">
          <mxGeometry width="50" height="50" relative="1" as="geometry">
            <mxPoint x="482" y="100" as="sourcePoint" />
            <mxPoint x="546" y="210" as="targetPoint" />
            <Array as="points">
              <mxPoint x="390" y="50" />
              <mxPoint x="390" y="120" />
              <mxPoint x="417" y="120" />
            </Array>
          </mxGeometry>
        </mxCell>
        <mxCell id="o0SU16Npg5g32bGM0q8D-96" style="edgeStyle=orthogonalEdgeStyle;rounded=0;orthogonalLoop=1;jettySize=auto;html=1;endArrow=block;endFill=1;labelBackgroundColor=#F1FAEE;strokeColor=#457B9D;fontColor=#1D3557;strokeWidth=2;entryX=0.343;entryY=0.1;entryDx=0;entryDy=0;entryPerimeter=0;" parent="1" source="o0SU16Npg5g32bGM0q8D-83" target="o0SU16Npg5g32bGM0q8D-37" edge="1">
          <mxGeometry relative="1" as="geometry">
            <mxPoint x="678" y="260" as="sourcePoint" />
            <mxPoint x="577" y="330" as="targetPoint" />
          </mxGeometry>
        </mxCell>
        <mxCell id="o0SU16Npg5g32bGM0q8D-97" value="" style="group;fillColor=#d5e8d4;strokeColor=#82B366;" parent="1" vertex="1" connectable="0">
          <mxGeometry x="610" y="590" width="150" height="190" as="geometry" />
        </mxCell>
        <mxCell id="o0SU16Npg5g32bGM0q8D-98" value="" style="rounded=0;whiteSpace=wrap;html=1;fillColor=#A8DADC;strokeColor=#457B9D;fontColor=#1D3557;" parent="o0SU16Npg5g32bGM0q8D-97" vertex="1">
          <mxGeometry width="150" height="190" as="geometry" />
        </mxCell>
        <mxCell id="o0SU16Npg5g32bGM0q8D-99" value="Spacy NLP engine" style="text;html=1;strokeColor=none;fillColor=none;align=center;verticalAlign=middle;whiteSpace=wrap;rounded=0;fontColor=#1D3557;" parent="o0SU16Npg5g32bGM0q8D-97" vertex="1">
          <mxGeometry x="5.25" y="10.56" width="112.60714285714285" height="31.67" as="geometry" />
        </mxCell>
        <mxCell id="o0SU16Npg5g32bGM0q8D-101" value="en-core-web-sm" style="rounded=0;whiteSpace=wrap;html=1;fillColor=#d5e8d4;strokeColor=#82b366;" parent="o0SU16Npg5g32bGM0q8D-97" vertex="1">
          <mxGeometry x="5.25" y="58.05" width="134.75" height="31.66" as="geometry" />
        </mxCell>
        <mxCell id="o0SU16Npg5g32bGM0q8D-112" value="fi_datahel_spacy" style="rounded=0;whiteSpace=wrap;html=1;fillColor=#d5e8d4;strokeColor=#82b366;" parent="o0SU16Npg5g32bGM0q8D-97" vertex="1">
          <mxGeometry x="5.25" y="140" width="134.75" height="31.66" as="geometry" />
        </mxCell>
        <mxCell id="QhEqJXYQCeA0x0Y6JokV-1" value="fi-core-news-lg" style="rounded=0;whiteSpace=wrap;html=1;fillColor=#d5e8d4;strokeColor=#82b366;" vertex="1" parent="o0SU16Npg5g32bGM0q8D-97">
          <mxGeometry x="5.25" y="100" width="134.75" height="31.66" as="geometry" />
        </mxCell>
        <mxCell id="o0SU16Npg5g32bGM0q8D-114" style="edgeStyle=orthogonalEdgeStyle;rounded=0;orthogonalLoop=1;jettySize=auto;html=1;exitX=1;exitY=0.5;exitDx=0;exitDy=0;entryX=0;entryY=0.5;entryDx=0;entryDy=0;endArrow=none;endFill=0;strokeWidth=2;strokeColor=#2F5780;" parent="1" source="o0SU16Npg5g32bGM0q8D-25" target="o0SU16Npg5g32bGM0q8D-98" edge="1">
          <mxGeometry relative="1" as="geometry" />
        </mxCell>
        <mxCell id="o0SU16Npg5g32bGM0q8D-25" value="" style="rounded=0;whiteSpace=wrap;html=1;fillColor=#A8DADC;strokeColor=#457B9D;fontColor=#1D3557;" parent="1" vertex="1">
          <mxGeometry x="267.25" y="590" width="322.75" height="190.00000000000003" as="geometry" />
        </mxCell>
        <mxCell id="o0SU16Npg5g32bGM0q8D-26" value="Recognizers" style="text;html=1;strokeColor=none;fillColor=none;align=center;verticalAlign=middle;whiteSpace=wrap;rounded=0;fontColor=#1D3557;" parent="1" vertex="1">
          <mxGeometry x="285.6928571428571" y="600.5555555555555" width="55.32857142857142" height="31.66666666666667" as="geometry" />
        </mxCell>
        <mxCell id="o0SU16Npg5g32bGM0q8D-27" value="Car licence plate" style="rounded=0;whiteSpace=wrap;html=1;fillColor=#d5e8d4;strokeColor=#82b366;" parent="1" vertex="1">
          <mxGeometry x="278.55" y="737.78" width="101.45" height="31.67" as="geometry" />
        </mxCell>
        <mxCell id="o0SU16Npg5g32bGM0q8D-28" value="Social security number" style="rounded=0;whiteSpace=wrap;html=1;fillColor=#d5e8d4;strokeColor=#82b366;" parent="1" vertex="1">
          <mxGeometry x="278.55" y="648.06" width="101.45" height="31.67" as="geometry" />
        </mxCell>
        <mxCell id="o0SU16Npg5g32bGM0q8D-29" value="Address" style="rounded=0;whiteSpace=wrap;html=1;fillColor=#D5E8D4;strokeColor=#82B366;" parent="1" vertex="1">
          <mxGeometry x="392.2467857142857" y="737.7755555555556" width="88.06464285714286" height="31.66666666666667" as="geometry" />
        </mxCell>
        <mxCell id="o0SU16Npg5g32bGM0q8D-30" value="File names" style="rounded=0;whiteSpace=wrap;html=1;fillColor=#d5e8d4;strokeColor=#82b366;" parent="1" vertex="1">
          <mxGeometry x="392.2467857142857" y="648.0577777777778" width="88.06464285714286" height="31.66666666666667" as="geometry" />
        </mxCell>
        <mxCell id="o0SU16Npg5g32bGM0q8D-31" value="Phone number" style="rounded=0;whiteSpace=wrap;html=1;fillColor=#d5e8d4;strokeColor=#82b366;" parent="1" vertex="1">
          <mxGeometry x="278.55" y="690.28" width="101.45" height="31.67" as="geometry" />
        </mxCell>
        <mxCell id="o0SU16Npg5g32bGM0q8D-32" value="Property ID" style="rounded=0;whiteSpace=wrap;html=1;fillColor=#d5e8d4;strokeColor=#82b366;" parent="1" vertex="1">
          <mxGeometry x="392.2467857142857" y="690.2777777777778" width="88.06464285714286" height="31.66666666666667" as="geometry" />
        </mxCell>
        <mxCell id="o0SU16Npg5g32bGM0q8D-33" value="Person" style="rounded=0;whiteSpace=wrap;html=1;fillColor=#d5e8d4;strokeColor=#82B366;" parent="1" vertex="1">
          <mxGeometry x="492.2476785714285" y="737.7755555555556" width="88.06464285714286" height="31.66666666666667" as="geometry" />
        </mxCell>
        <mxCell id="o0SU16Npg5g32bGM0q8D-34" value="Email" style="rounded=0;whiteSpace=wrap;html=1;fillColor=#d5e8d4;strokeColor=#82b366;" parent="1" vertex="1">
          <mxGeometry x="492.5676785714285" y="648.0555555555555" width="88.06464285714286" height="31.66666666666667" as="geometry" />
        </mxCell>
        <mxCell id="o0SU16Npg5g32bGM0q8D-35" value="IP address" style="rounded=0;whiteSpace=wrap;html=1;fillColor=#d5e8d4;strokeColor=#82b366;" parent="1" vertex="1">
          <mxGeometry x="492.5676785714285" y="690.2777777777778" width="88.06464285714286" height="31.66666666666667" as="geometry" />
        </mxCell>
        <mxCell id="o0SU16Npg5g32bGM0q8D-36" value="IBAN" style="rounded=0;whiteSpace=wrap;html=1;fillColor=#d5e8d4;strokeColor=#82b366;" parent="1" vertex="1">
          <mxGeometry x="492.5676785714285" y="600.5577777777778" width="88.06464285714286" height="31.66666666666667" as="geometry" />
        </mxCell>
        <mxCell id="o0SU16Npg5g32bGM0q8D-116" value="Presidio Anonymizer Engine" style="rounded=0;whiteSpace=wrap;html=1;fillColor=#d5e8d4;strokeColor=#82b366;" parent="1" vertex="1">
          <mxGeometry x="570" y="480" width="163.88" height="40" as="geometry" />
        </mxCell>
        <mxCell id="o0SU16Npg5g32bGM0q8D-120" style="edgeStyle=orthogonalEdgeStyle;rounded=0;orthogonalLoop=1;jettySize=auto;html=1;endArrow=block;endFill=1;entryX=0.911;entryY=1;entryDx=0;entryDy=0;labelBackgroundColor=#F1FAEE;strokeColor=#457B9D;fontColor=#1D3557;strokeWidth=2;entryPerimeter=0;" parent="1" source="o0SU16Npg5g32bGM0q8D-116" target="o0SU16Npg5g32bGM0q8D-19" edge="1">
          <mxGeometry relative="1" as="geometry">
            <mxPoint x="900" y="450" as="sourcePoint" />
            <mxPoint x="880" y="510" as="targetPoint" />
          </mxGeometry>
        </mxCell>
        <mxCell id="o0SU16Npg5g32bGM0q8D-121" style="edgeStyle=orthogonalEdgeStyle;rounded=0;orthogonalLoop=1;jettySize=auto;html=1;endArrow=block;endFill=1;entryX=0;entryY=0.5;entryDx=0;entryDy=0;exitX=1;exitY=0.5;exitDx=0;exitDy=0;labelBackgroundColor=#F1FAEE;strokeColor=#457B9D;fontColor=#1D3557;strokeWidth=2;" parent="1" source="o0SU16Npg5g32bGM0q8D-9" target="o0SU16Npg5g32bGM0q8D-116" edge="1">
          <mxGeometry relative="1" as="geometry">
            <mxPoint x="910" y="460" as="sourcePoint" />
            <mxPoint x="890" y="520" as="targetPoint" />
          </mxGeometry>
        </mxCell>
        <mxCell id="o0SU16Npg5g32bGM0q8D-123" value="&lt;div&gt;Analysis&lt;/div&gt;&lt;div&gt;results&lt;br&gt;&lt;/div&gt;" style="text;html=1;strokeColor=none;fillColor=none;align=center;verticalAlign=middle;whiteSpace=wrap;rounded=0;fontColor=#1D3557;" parent="1" vertex="1">
          <mxGeometry x="492.57" y="460" width="60" height="30" as="geometry" />
        </mxCell>
        <mxCell id="o0SU16Npg5g32bGM0q8D-124" value="&lt;div&gt;Anonymization&lt;/div&gt;&lt;div&gt;results&lt;br&gt;&lt;/div&gt;" style="text;html=1;strokeColor=none;fillColor=none;align=center;verticalAlign=middle;whiteSpace=wrap;rounded=0;fontColor=#1D3557;" parent="1" vertex="1">
          <mxGeometry x="667.25" y="440" width="60" height="30" as="geometry" />
        </mxCell>
      </root>
    </mxGraphModel>
  </diagram>
</mxfile>
